<?xml version="1.0" encoding="UTF-8" standalone="no"?>
<svg
   xmlns:dc="http://purl.org/dc/elements/1.1/"
   xmlns:cc="http://creativecommons.org/ns#"
   xmlns:rdf="http://www.w3.org/1999/02/22-rdf-syntax-ns#"
   xmlns:svg="http://www.w3.org/2000/svg"
   xmlns="http://www.w3.org/2000/svg"
   viewBox="0 0 32 32"
   version="1.1"
   id="svg6"
   width="32"
   height="32">
  <metadata
     id="metadata12">
    <rdf:RDF>
      <cc:Work
         rdf:about="">
        <dc:format>image/svg+xml</dc:format>
        <dc:type
           rdf:resource="http://purl.org/dc/dcmitype/StillImage" />
        <dc:title></dc:title>
      </cc:Work>
    </rdf:RDF>
  </metadata>
  <defs
     id="defs10" />
  <g
     fill="none"
     fill-rule="evenodd"
     id="g4"
     transform="matrix(0.54023939,0,0,0.55564172,-0.00216096,0.00166693)">
    <path
       d="m 1324.62,140 c -16.355,0 -29.616,13.219 -29.616,29.527 0,13.04 8.485,24.11 20.256,28.01 1.482,0.27 2.02,-0.642 2.02,-1.425 0,-0.7 -0.025,-2.557 -0.04,-5.02 -8.238,1.784 -9.976,-3.958 -9.976,-3.958 -1.347,-3.411 -3.289,-4.317 -3.289,-4.317 -2.689,-1.832 0.204,-1.796 0.204,-1.796 2.973,0.21 4.536,3.043 4.536,3.043 2.642,4.511 6.931,3.208 8.62,2.454 0.269,-1.909 1.033,-3.21 1.88,-3.948 -6.576,-0.745 -13.491,-3.279 -13.491,-14.592 0,-3.223 1.155,-5.858 3.049,-7.922 -0.305,-0.747 -1.322,-3.748 0.289,-7.814 0,0 2.487,-0.794 8.145,3.03 2.362,-0.656 4.896,-0.982 7.415,-0.995 2.515,0.013 5.05,0.339 7.415,0.995 5.655,-3.821 8.136,-3.03 8.136,-3.03 1.616,4.065 0.6,7.07 0.295,7.814 1.898,2.064 3.045,4.7 3.045,7.922 0,11.343 -6.925,13.838 -13.524,14.569 1.064,0.912 2.01,2.713 2.01,5.468 0,3.946 -0.036,7.13 -0.036,8.098 0,0.79 0.533,1.709 2.036,1.421 11.758,-3.913 20.238,-14.971 20.238,-28.01 0,-16.309 -13.262,-29.527 -29.62,-29.527"
       transform="translate(-1295,-140)"
       fill="#181616"
       id="path2" />
  </g>
</svg>
