<?xml version="1.0" encoding="UTF-8" standalone="no"?>
<svg
   xmlns:dc="http://purl.org/dc/elements/1.1/"
   xmlns:cc="http://creativecommons.org/ns#"
   xmlns:rdf="http://www.w3.org/1999/02/22-rdf-syntax-ns#"
   xmlns:svg="http://www.w3.org/2000/svg"
   xmlns="http://www.w3.org/2000/svg"
   version="1.1"
   id="Layer_1"
   x="0px"
   y="0px"
   viewBox="0 0 32 31.999998"
   xml:space="preserve"
   width="32"
   height="31.999998"><metadata
     id="metadata39"><rdf:RDF><cc:Work
         rdf:about=""><dc:format>image/svg+xml</dc:format><dc:type
           rdf:resource="http://purl.org/dc/dcmitype/StillImage" /><dc:title></dc:title></cc:Work></rdf:RDF></metadata><defs
     id="defs37" /><g
     id="g4"
     transform="translate(0,-350.11358)" /><g
     id="g6"
     transform="translate(0,-350.11358)" /><g
     id="g8"
     transform="translate(0,-350.11358)" /><g
     id="g10"
     transform="translate(0,-350.11358)" /><g
     id="g12"
     transform="translate(0,-350.11358)" /><g
     id="g14"
     transform="translate(0,-350.11358)" /><g
     id="g16"
     transform="translate(0,-350.11358)" /><g
     id="g18"
     transform="translate(0,-350.11358)" /><g
     id="g20"
     transform="translate(0,-350.11358)" /><g
     id="g22"
     transform="translate(0,-350.11358)" /><g
     id="g24"
     transform="translate(0,-350.11358)" /><g
     id="g26"
     transform="translate(0,-350.11358)" /><g
     id="g28"
     transform="translate(0,-350.11358)" /><g
     id="g30"
     transform="translate(0,-350.11358)" /><g
     id="g32"
     transform="translate(0,-350.11358)" /><g
     id="g4312"
     transform="matrix(0.0837808,0,0,0.08381403,0,-0.02648092)"><rect
       y="0.31594858"
       x="0"
       height="381.79764"
       width="381.9491"
       id="rect4306"
       style="fill:#0077b7;fill-opacity:1;stroke-width:10.79662895" /><path
       id="path4300"
       d="m 80.833557,122.69501 c -4.860455,-0.75584 -11.42636,-3.29843 -15.5889,-6.03668 C 53.163596,108.71103 46.665756,96.820512 46.641169,82.615469 46.621991,71.535021 50.407628,62.597058 58.539804,54.522554 66.773844,46.346909 75.752595,42.57638 86.987196,42.57638 c 10.837477,0 19.851494,3.84982 27.849624,11.894366 8.32495,8.373261 11.96812,16.901872 11.98586,28.058661 0.0143,9.012808 -1.86938,15.24246 -6.8947,22.801623 -8.30378,12.49067 -24.415326,19.64669 -39.094423,17.36398 z"
       style="fill:#ffffff;fill-opacity:1;stroke-width:0.64722526" /><path
       id="path4302"
       d="m 61.499609,338.39966 c -1.596495,-0.81164 -3.559351,-2.46379 -4.361901,-3.67144 l -1.459183,-2.19574 v -92.05291 c 0,-101.90002 -0.300176,-94.76344 4.118466,-97.91529 1.993833,-1.42221 2.344679,-1.4435 26.576396,-1.61282 23.611953,-0.16498 24.636853,-0.12174 26.661973,1.12496 1.15834,0.7131 2.68392,2.24427 3.39017,3.40262 1.2655,2.07558 1.28413,3.44542 1.28651,94.57976 l 0.002,92.47368 -1.45397,2.13632 c -0.79968,1.17497 -2.27448,2.74465 -3.27734,3.48815 -1.7595,1.30449 -2.64219,1.35825 -25.202093,1.53512 -23.244159,0.18222 -23.395438,0.17479 -26.281448,-1.29241 z"
       style="fill:#ffffff;fill-opacity:1;stroke-width:0.64722526" /><path
       id="path4304"
       d="m 153.88171,339.22378 c -2.88078,-0.87525 -4.57926,-2.23925 -5.84923,-4.69736 -1.20374,-2.32991 -1.23865,-4.99087 -1.23768,-94.34631 9.5e-4,-86.24969 0.071,-92.08817 1.13087,-94.19763 0.62142,-1.23686 2.11794,-2.90893 3.3256,-3.71569 2.18634,-1.46057 2.30056,-1.46685 26.68815,-1.46685 27.04491,0 27.15124,0.0146 29.62406,4.07017 1.09583,1.79723 1.26174,3.28467 1.26384,11.33111 0.001,5.09427 0.25655,9.16538 0.56717,9.04691 0.31062,-0.11847 2.29233,-2.3969 4.40381,-5.06317 11.93184,-15.06693 30.10917,-22.58489 54.66955,-22.61076 38.21249,-0.0402 61.88346,19.47319 69.56445,57.34625 2.89256,14.26247 2.94689,15.72127 2.94689,79.11711 v 60.53927 l -1.90784,1.99163 c -1.04932,1.0954 -3.03048,2.29392 -4.40259,2.66339 -1.58198,0.42598 -11.2869,0.59954 -26.52529,0.47435 -23.97742,-0.19697 -24.03521,-0.20074 -26.14047,-1.70233 -4.15367,-2.96262 -3.93116,0.19334 -4.20345,-59.6197 -0.24209,-53.17815 -0.2832,-54.69002 -1.63843,-60.26541 -4.38798,-18.05197 -14.76821,-26.91462 -31.52326,-26.91462 -9.27049,0 -16.03502,2.73411 -22.26174,8.99783 -6.72497,6.76493 -10.66435,15.66426 -12.60792,28.48221 -0.7486,4.93707 -0.93159,15.84466 -0.93466,55.71292 l -0.004,49.57395 -1.99178,2.26851 c -1.11733,1.27257 -3.03234,2.55754 -4.3619,2.92682 -2.76203,0.76716 -46.08981,0.81833 -48.59434,0.0574 z"
       style="fill:#ffffff;fill-opacity:1;stroke-width:0.64722526" /></g></svg>